<svg height="260pt" preserveAspectRatio="xMidYMid meet" viewBox="0 0 260 260" width="260pt" xmlns="http://www.w3.org/2000/svg"><path d="m268 1890c-31-9-71-28-90-40-49-34-108-92-108-107 0-7-4-13-9-13s-19-26-32-57c-44-110-30-254 34-352 13-20 140-152 282-293 316-315 328-323 494-323 149 1 187 20 342 172l119 117 113-113c84-83 128-120 177-144 60-30 71-32 170-32 169 0 181 8 504 331 319 320 331 337 331 494 0 87-3 101-32 161-40 80-111 150-191 187-49 23-70 27-152 27-137 0-188-27-343-180l-117-116-117 116c-157 154-220 186-362 182-117-3-178-37-324-183l-118-117-123 122c-150 147-194 171-326 176-41 2-86-4-122-15z" transform="matrix(.1 0 0 -.1 0 260)"/></svg>