<svg width="24" height="24" viewBox="0 0 24 24" fill="none" xmlns="http://www.w3.org/2000/svg">
<rect x="2" y="9" width="20" height="2" rx="1" fill="url(#paint0_linear)"/>
<path d="M10 12H4V19C4 20.1046 4.89543 21 6 21H18C19.1046 21 20 20.1046 20 19V12H14V17C14 18.1046 13.1046 19 12 19C10.8954 19 10 18.1046 10 17V12Z" fill="url(#paint1_linear)"/>
<path d="M11 12H13V17C13 17.5523 12.5523 18 12 18C11.4477 18 11 17.5523 11 17V12Z" fill="url(#paint2_linear)"/>
<path fill-rule="evenodd" clip-rule="evenodd" d="M6 5C6 3.34315 7.34315 2 9 2C10.6569 2 12 3.34315 12 5C12 3.34315 13.3431 2 15 2C16.6569 2 18 3.34315 18 5C18 6.65685 16.6569 8 15 8H9C7.34315 8 6 6.65685 6 5ZM10 5V6H9C8.44772 6 8 5.55228 8 5C8 4.44772 8.44772 4 9 4C9.55228 4 10 4.44772 10 5ZM14 5V6H15C15.5523 6 16 5.55228 16 5C16 4.44772 15.5523 4 15 4C14.4477 4 14 4.44772 14 5Z" fill="url(#paint3_linear)"/>
<defs>
<linearGradient id="paint0_linear" x1="-2.14214" y1="10" x2="-1.86209" y2="12.8004" gradientUnits="userSpaceOnUse">
<stop stop-color="#3CA6F9"/>
<stop offset="1" stop-color="#486EF0"/>
</linearGradient>
<linearGradient id="paint1_linear" x1="0.686292" y1="16.5" x2="6.12493" y2="26.1687" gradientUnits="userSpaceOnUse">
<stop stop-color="#3CA6F9"/>
<stop offset="1" stop-color="#486EF0"/>
</linearGradient>
<linearGradient id="paint2_linear" x1="9.70017" y1="15" x2="13.8123" y2="18.1983" gradientUnits="userSpaceOnUse">
<stop stop-color="#FFF500"/>
<stop offset="1" stop-color="#FAAE1B"/>
</linearGradient>
<linearGradient id="paint3_linear" x1="3.10051" y1="5" x2="6.17276" y2="12.1686" gradientUnits="userSpaceOnUse">
<stop stop-color="#FFF500"/>
<stop offset="1" stop-color="#FAAE1B"/>
</linearGradient>
</defs>
</svg>
