<svg fill="none" height="24" viewBox="0 0 24 24" width="24" xmlns="http://www.w3.org/2000/svg"><path d="m20 8-6-5.26c-.55-.49196-1.2621-.76393-2-.76393-.738 0-1.45.27197-2.00003.76393l-6 5.26c-.31763.28407-.5711.63256-.74353 1.02224-.17242.38969-.25985.81164-.25647 1.23776v8.74c0 .7956.31607 1.5587.87868 2.1213s1.32567.8787 2.12132.8787h12.00003c.7956 0 1.5587-.3161 2.1213-.8787s.8787-1.3257.8787-2.1213v-8.75c.0019-.42444-.0862-.84446-.2586-1.23232-.1723-.38786-.4251-.73473-.7414-1.01768zm-6 12h-4.00003v-5c0-.2652.10533-.5196.29293-.7071.1875-.1875.4419-.2929.7071-.2929h2c.2652 0 .5195.1054.7071.2929.1875.1875.2929.4419.2929.7071zm5-1c0 .2652-.1054.5196-.2929.7071-.1876.1875-.4419.2929-.7071.2929h-2v-5c0-.7957-.3161-1.5587-.8787-2.1213s-1.3257-.8787-2.1213-.8787h-2c-.7957 0-1.55874.3161-2.12135.8787s-.87868 1.3256-.87868 2.1213v5h-2c-.26521 0-.51957-.1054-.7071-.2929-.18754-.1875-.2929-.4419-.2929-.7071v-8.75c.00018-.142.0306-.28231.08922-.41162.05862-.12932.14411-.24467.25078-.33838l6.00003-5.25c.1825-.16032.4171-.24874.66-.24874s.4775.08842.66.24874l6 5.25c.1066.09371.1921.20906.2508.33838.0586.12931.089.26962.0892.41162z" fill="#939598"/></svg>