<svg fill="none" height="24" viewBox="0 0 24 24" width="24" xmlns="http://www.w3.org/2000/svg" xmlns:xlink="http://www.w3.org/1999/xlink"><linearGradient id="a" gradientUnits="userSpaceOnUse" x1="-2.31371" x2="9.68505" y1="12.5" y2="23.7929"><stop offset="0" stop-color="#3ca6f9"/><stop offset="1" stop-color="#486ef0"/></linearGradient><linearGradient id="b" gradientUnits="userSpaceOnUse" x1="12.1422" x2="22.0652" y1="12.5" y2="17.7359"><stop offset="0" stop-color="#fff500"/><stop offset="1" stop-color="#faae1b"/></linearGradient><path clip-rule="evenodd" d="m12.3 12.72c.5336-.4619.9616-1.0331 1.2549-1.675.2933-.6418.4451-1.33929.4451-2.045 0-1.32608-.5268-2.59785-1.4645-3.53553-.9376-.93769-2.2094-1.46447-3.5355-1.46447-1.32608 0-2.59785.52678-3.53553 1.46447-.93769.93768-1.46447 2.20945-1.46447 3.53553-.00001.70571.1518 1.4032.44513 2.045.29332.6419.72129 1.2131 1.25487 1.675-1.39986.6339-2.58753 1.6575-3.42102 2.9485-.83348 1.2911-1.27751 2.7948-1.27898 4.3315 0 .2652.10536.5196.29289.7071.18754.1875.44189.2929.70711.2929h14c.2652 0 .5196-.1054.7071-.2929s.2929-.4419.2929-.7071c-.0015-1.5367-.4455-3.0404-1.279-4.3315-.8335-1.291-2.0211-2.3146-3.421-2.9485zm-4.96671-1.2256c.49335.3297 1.07337.5056 1.66671.5056.79565 0 1.5587-.3161 2.1213-.8787s.8787-1.32565.8787-2.1213c0-.59334-.1759-1.17336-.5056-1.66671-.3296-.49335-.7982-.87787-1.3463-1.10493-.54823-.22706-1.15143-.28647-1.73337-.17072-.58194.11576-1.11649.40148-1.53605.82104s-.70528.95411-.82104 1.53605c-.11575.58194-.05634 1.18514.17072 1.73337.22706.5481.61158 1.0167 1.10493 1.3463z" fill="url(#a)" fill-rule="evenodd"/><path d="m9 12c-.59334 0-1.17336-.1759-1.66671-.5056-.49335-.3296-.87787-.7982-1.10493-1.3463-.22706-.54823-.28647-1.15143-.17072-1.73337.11576-.58194.40148-1.11649.82104-1.53605s.95411-.70528 1.53605-.82104c.58194-.11575 1.18514-.05634 1.73337.17072.5481.22706 1.0167.61158 1.3463 1.10493.3297.49335.5056 1.07337.5056 1.66671 0 .79565-.3161 1.5587-.8787 2.1213s-1.32565.8787-2.1213.8787z" fill="url(#a)"/><path clip-rule="evenodd" d="m19.9438 9.75634c-.1458.95276-.5638 1.84296-1.2038 2.56366 1.3013.8133 2.3731 1.9459 3.1135 3.2901.7403 1.3442 1.1247 2.8553 1.1165 4.3899 0 .2652-.1054.5196-.2929.7071s-.4419.2929-.7071.2929-.5196-.1054-.7071-.2929-.2929-.4419-.2929-.7071c.0105-1.3341-.3604-2.6434-1.069-3.7737-.7087-1.1303-1.7256-2.0346-2.931-2.6063l-.13-.07-.39-.26c-.1419-.0933-.2576-.2213-.3363-.3717-.0788-.1505-.1179-.3185-.1137-.4883.0045-.1711.0528-.3382.1404-.4853.0875-.147.2113-.2692.3596-.3547.4549-.2626.8328-.6401 1.0961-1.0946.2632-.4545.4025-.97016.4039-1.4954 0-.79565-.3161-1.55871-.8787-2.12132s-1.3257-.87868-2.1213-.87868c-.2652 0-.5196-.10536-.7071-.29289-.1875-.18754-.2929-.44189-.2929-.70711s.1054-.51957.2929-.70711c.1875-.18753.4419-.29289.7071-.29289.9638-.00026 1.9071.27805 2.7165.80142.8093.52338 1.4501 1.26951 1.8453 2.14858.3951.87907.5278 1.85362.382 2.80634z" fill="url(#b)" fill-rule="evenodd"/></svg>