<svg fill="none" height="24" viewBox="0 0 24 24" width="24" xmlns="http://www.w3.org/2000/svg" xmlns:xlink="http://www.w3.org/1999/xlink"><linearGradient id="a" gradientUnits="userSpaceOnUse" x1="-2.21285" x2="11.929" y1="12" y2="25.8916"><stop offset="0" stop-color="#3ca6f9"/><stop offset="1" stop-color="#486ef0"/></linearGradient><linearGradient id="b" gradientUnits="userSpaceOnUse" x1="8.81159" x2="11.64" y1="12" y2="14.8284"><stop offset="0" stop-color="#fff500"/><stop offset="1" stop-color="#faae1b"/></linearGradient><path clip-rule="evenodd" d="m19.6513 12c0 .2429.0884.4775.2487.66l1.35 1.44c.1411.1573.2287.3553.2502.5655.0216.2102-.024.4218-.1302.6045l-2 3.46c-.1051.1825-.2651.3271-.4572.4133-.1922.0862-.4066.1095-.6128.0667l-1.88-.38c-.2392-.0494-.4882-.0096-.7001.112s-.3719.3165-.4499.548l-.61 1.83c-.0671.1986-.1949.3711-.3654.4932-.1704.122-.3749.1873-.5846.1868h-3.99998c-.21807.0114-.43387-.0489-.61444-.1717s-.31598-.3013-.38556-.5083l-.61-1.83c-.078-.2315-.23803-.4264-.44989-.548s-.46089-.1614-.70011-.112l-1.88.38c-.20618.0428-.42062.0195-.61275-.0667s-.35216-.2308-.45725-.4133l-2-3.46c-.10884-.1806-.15778-.3911-.13982-.6012.01796-.2102.1019-.4092.23982-.5688l1.27-1.44c.16032-.1825.24873-.4171.24873-.66s-.08841-.4775-.24873-.66l-1.27-1.44c-.13792-.15956-.22186-.35864-.23982-.56878-.01796-.21013.03098-.42057.13982-.60122l2-3.46c.1007-.16977.24939-.30594.42734-.39136.17796-.08542.37721-.11626.57266-.08864l1.93.38c.23921.04943.48825.00959.70011-.112s.37189-.31652.44989-.548l.56-1.83c.06958-.20698.20499-.3855.38556-.50829.18057-.12278.39637-.18309.61444-.17171h3.99998c.2097-.00054.4142.06482.5846.18684.1705.12203.2983.29454.3654.49316l.61 1.83c.078.23148.238.42641.4499.548s.4609.16143.7001.112l1.88-.38c.2062-.04284.4206-.0195.6128.06669.1921.08619.3521.23083.4572.41331l2 3.46c.1062.18269.1518.39431.1302.60451-.0215.21019-.1091.40816-.2502.56549l-1.28 1.44c-.1603.1825-.2487.4171-.2487.66zm-8.0113-4c-.7911 0-1.5645.2346-2.22226.67412-.6578.43953-1.17049 1.06424-1.47324 1.79518-.30275.7309-.38197 1.5351-.22762 2.3111.15434.7759.5353 1.4886 1.09471 2.048s1.27211.9404 2.04811 1.0947c.7759.1544 1.5801.0752 2.311-.2276.731-.3027 1.3557-.8154 1.7952-1.4732s.6741-1.4312.6741-2.2223c0-1.0609-.4214-2.07828-1.1716-2.82843-.7501-.75014-1.7675-1.17157-2.8284-1.17157z" fill="url(#a)" fill-rule="evenodd"/><g fill="url(#b)"><path d="m11.64 14c-.3955 0-.7822-.1173-1.1111-.3371-.3289-.2197-.58527-.5321-.73664-.8975-.15138-.3655-.19099-.7676-.11382-1.1556.07718-.3879.26766-.7443.54736-1.024s.6361-.4702 1.024-.5474c.388-.07714.7901-.0375 1.1556.1138.3654.1514.6778.4078.8976.7367.2197.3289.337.7155.337 1.1111 0 .5304-.2107 1.0391-.5858 1.4142-.375.3751-.8838.5858-1.4142.5858z"/><path d="m11.64 14c-.3955 0-.7822-.1173-1.1111-.3371-.3289-.2197-.58527-.5321-.73664-.8975-.15138-.3655-.19099-.7676-.11382-1.1556.07718-.3879.26766-.7443.54736-1.024s.6361-.4702 1.024-.5474c.388-.07714.7901-.0375 1.1556.1138.3654.1514.6778.4078.8976.7367.2197.3289.337.7155.337 1.1111 0 .5304-.2107 1.0391-.5858 1.4142-.375.3751-.8838.5858-1.4142.5858z"/></g></svg>