<svg fill="none" height="24" viewBox="0 0 24 24" width="24" xmlns="http://www.w3.org/2000/svg"><path d="m20.34 9.32-14-7c-.55251-.27499-1.17638-.37289-1.78656-.28035s-1.17698.37102-1.62311.79746c-.44612.42645-.74987.98011-.86983 1.5855s-.0503 1.23304.1995 1.79739l2.4 5.37c.05446.1298.08251.2692.08251.41s-.02805.2802-.08251.41l-2.4 5.37c-.2033.4567-.28924.957-.25002 1.4554.03922.4983.20237.979.47461 1.3983.27223.4193.64494.7639 1.08424 1.0025.43929.2386.93126.3637 1.43117.3638.46823-.0047.92949-.114 1.35-.32l14-7c.4966-.2498.914-.6327 1.2057-1.1059s.4461-1.0182.4461-1.5741-.1544-1.1009-.4461-1.5741c-.2917-.47321-.7091-.85609-1.2057-1.1059zm-.89 3.57-14 7c-.18383.0883-.39027.1182-.59161.0858-.20134-.0323-.38798-.1255-.53487-.2669-.1469-.1415-.24704-.3245-.28699-.5245s-.0178-.4074.06347-.5944l2.39-5.37c.03094-.0717.05766-.1452.08-.22h6.89c.2652 0 .5196-.1054.7071-.2929s.2929-.4419.2929-.7071-.1054-.5196-.2929-.7071-.4419-.2929-.7071-.2929h-6.89c-.02234-.0748-.04906-.1483-.08-.22l-2.39-5.37c-.08127-.18704-.10342-.39445-.06347-.59443s.14009-.38297.28699-.52442c.14689-.14146.33353-.23462.53487-.267s.40778-.00242.59161.08585l14 7c.1638.0839.3013.2114.3973.3684.096.1571.1467.3376.1467.5216s-.0507.3645-.1467.5216c-.096.157-.2335.2845-.3973.3684z" fill="#939598"/></svg>