<svg fill="none" height="24" viewBox="0 0 24 24" width="24" xmlns="http://www.w3.org/2000/svg"><path d="m21.17 2.06c-.7168-.12347-1.4426-.18702-2.17-.19-2.4816-.00204-4.9115.70957-7 2.05-2.09383-1.32283-4.52333-2.01697-6.99998-2-.72735.00298-1.45319.06653-2.17.19-.23479.04048-.44742.16346-.59958.34679-.15217.18334-.23388.41498-.23042.65321v12c-.00214.1469.02813.2925.08865.4264.06053.1339.14982.2529.26153.3483.1117.0955.24308.1652.38478.2041.1417.039.29024.0462.43504.0212 1.43302-.2481 2.90121-.2069 4.31807.1211s2.75371.9363 3.93191 1.7889l.12.07h.11c.1109.0462.2299.07.35.07.1202 0 .2391-.0238.35-.07h.11l.12-.07c1.17-.8717 2.503-1.4997 3.9202-1.8466 1.4171-.347 2.8895-.406 4.3298-.1734.1448.025.2934.0178.4351-.0212.1417-.0389.273-.1086.3847-.2041.1118-.0954.201-.2144.2616-.3483.0605-.1339.0908-.2795.0886-.4264v-12c-.0104-.22785-.0984-.44529-.2493-.61626-.151-.17098-.3559-.2852-.5807-.32374zm-10.17 13.29c-1.85009-.9733-3.90946-1.4813-5.99998-1.48h-1v-10c.33306-.0192.66695-.0192 1 0 2.13339-.00236 4.22022.62369 5.99998 1.8zm9-1.44h-1c-2.0905-.0013-4.1499.5067-6 1.48v-9.72c1.7798-1.17631 3.8666-1.80236 6-1.8.3331-.0192.667-.0192 1 0zm1.17 4.15c-.7168-.1235-1.4426-.187-2.17-.19-2.4816-.002-4.9115.7096-7 2.05-2.08846-1.3404-4.51834-2.052-6.99998-2.05-.72735.003-1.45319.0665-2.17.19-.13017.0207-.25497.0668-.36723.1359s-.20977.1596-.2869.2665-.13238.2279-.16256.3562-.03471.2613-.01331.3914c.05082.2597.20249.4886.42179.6367s.48835.2032.74821.1533c1.43302-.2481 2.90121-.2069 4.31807.1211s2.75371.9363 3.93191 1.7889c.1694.1206.3721.1854.58.1854s.4107-.0648.58-.1854c1.1782-.8526 2.5151-1.4609 3.932-1.7889 1.4168-.328 2.885-.3692 4.318-.1211.2599.0499.5289-.0052.7482-.1533s.371-.377.4218-.6367c.0214-.1301.0169-.2631-.0133-.3914s-.0854-.2493-.1625-.3562c-.0772-.1069-.1747-.1974-.2869-.2665-.1123-.0691-.2371-.1152-.3673-.1359z" fill="#939598"/></svg>