<svg fill="none" height="24" viewBox="0 0 24 24" width="24" xmlns="http://www.w3.org/2000/svg" xmlns:xlink="http://www.w3.org/1999/xlink"><linearGradient id="a" gradientUnits="userSpaceOnUse" x1="-.72807" x2="13.351" y1="11.988" y2="24.6441"><stop offset="0" stop-color="#3ca6f9"/><stop offset="1" stop-color="#486ef0"/></linearGradient><linearGradient id="b" gradientUnits="userSpaceOnUse" x1="9.17157" x2="13.6971" y1="18" y2="20.2627"><stop offset="0" stop-color="#fff500"/><stop offset="1" stop-color="#faae1b"/></linearGradient><g clip-rule="evenodd" fill-rule="evenodd"><path d="m14 2.74 6 5.26c.3163.28296.5691.62982.7414 1.01768.1724.38786.2605.80788.2586 1.23232v8.75c0 .7956-.3161 1.5587-.8787 2.1213s-1.3257.8787-2.1213.8787h-2v-2-5c0-.7956-.3161-1.5587-.8787-2.1213s-1.3257-.8787-2.1213-.8787h-2c-.7957 0-1.55874.3161-2.12135.8787-.55959.5596-.87529 1.3175-.87865 2.1085v7.0128h-2.00003c-.79565 0-1.55871-.3161-2.12132-.8787s-.87868-1.3257-.87868-2.1213v-8.74c-.00338-.42612.08405-.84807.25647-1.23775.17243-.38969.4259-.73818.74353-1.02225l6-5.26c.55003-.49195 1.26203-.76393 2.00003-.76393.7379 0 1.45.27198 2 .76393z" fill="url(#a)"/><path d="m10 22h4v-7c0-.2652-.1054-.5196-.2929-.7071s-.4419-.2929-.7071-.2929h-2c-.2652 0-.5196.1054-.7071.2929s-.2929.4419-.2929.7071z" fill="url(#b)"/></g></svg>