<svg fill="none" height="24" viewBox="0 0 24 24" width="24" xmlns="http://www.w3.org/2000/svg"><path d="m19.9 12.66c-.1603-.1825-.2487-.4171-.2487-.66s.0884-.4775.2487-.66l1.28-1.44c.1411-.15733.2287-.35529.2502-.56549.0216-.2102-.024-.42182-.1302-.60451l-2-3.46c-.1051-.18248-.2651-.32712-.4572-.41331-.1922-.08619-.4066-.10953-.6128-.06669l-1.88.38c-.2392.04943-.4882.00959-.7001-.112s-.3719-.31651-.4499-.548l-.61-1.83c-.0671-.19862-.1949-.37113-.3654-.49316-.1704-.12202-.3749-.18738-.5846-.18684h-3.99998c-.21807-.01138-.43387.04893-.61444.17172-.18057.12278-.31598.3013-.38556.50828l-.56 1.83c-.078.23149-.23803.42641-.44989.548s-.46089.16143-.70011.112l-1.93-.38c-.19545-.02762-.3947.00322-.57265.08864-.17796.08542-.32665.22159-.42735.39136l-2 3.46c-.10884.18065-.15778.39109-.13982.60123.01796.21013.1019.40921.23982.56877l1.27 1.44c.16032.1825.24873.4171.24873.66s-.08841.4775-.24873.66l-1.27 1.44c-.13792.1596-.22186.3586-.23982.5688-.01796.2101.03098.4206.13982.6012l2 3.46c.1051.1825.26512.3271.45725.4133s.40657.1095.61275.0667l1.88-.38c.23922-.0494.48825-.0096.70011.112s.37189.3165.44989.548l.61 1.83c.06958.207.20499.3855.38556.5083s.39637.1831.61444.1717h3.99998c.2097.0005.4142-.0648.5846-.1868.1705-.1221.2983-.2946.3654-.4932l.61-1.83c.078-.2315.238-.4264.4499-.548s.4609-.1614.7001-.112l1.88.38c.2062.0428.4206.0195.6128-.0667.1921-.0862.3521-.2308.4572-.4133l2-3.46c.1062-.1827.1518-.3943.1302-.6045-.0215-.2102-.1091-.4082-.2502-.5655zm-1.49 1.34.8.9-1.28 2.22-1.18-.24c-.7202-.1472-1.4694-.0249-2.1054.3438s-1.1144.958-1.3446 1.6562l-.38 1.12h-2.56l-.36-1.14c-.23013-.6982-.7086-1.2875-1.34458-1.6562-.63597-.3687-1.38518-.491-2.1054-.3438l-1.18.24-1.3-2.21.8-.9c.49195-.55.76393-1.2621.76393-2s-.27198-1.45-.76393-2l-.8-.9 1.28-2.2 1.18.24c.72022.14722 1.46943.02488 2.1054-.3438.63598-.36868 1.11445-.95804 1.3446-1.6562l.37998-1.13h2.56l.38 1.14c.2302.69816.7086 1.28752 1.3446 1.6562s1.3852.49102 2.1054.3438l1.18-.24 1.28 2.22-.8.9c-.4864.5488-.755 1.2567-.755 1.99s.2686 1.4412.755 1.99zm-6.77-6c-.7911 0-1.5645.2346-2.22226.67412-.6578.43953-1.17049 1.06424-1.47324 1.79518-.30275.7309-.38196 1.5351-.22762 2.3111.15434.7759.5353 1.4886 1.09471 2.048s1.27211.9404 2.04811 1.0947c.7759.1544 1.5801.0752 2.3111-.2276.7309-.3027 1.3556-.8154 1.7951-1.4732s.6741-1.4312.6741-2.2223c0-1.0609-.4214-2.07828-1.1716-2.82843-.7501-.75014-1.7675-1.17157-2.8284-1.17157zm0 6c-.3955 0-.7822-.1173-1.1111-.3371-.3289-.2197-.58527-.5321-.73664-.8975-.15138-.3655-.19098-.7676-.11381-1.1556.07717-.3879.26765-.7443.54735-1.024s.6361-.4702 1.024-.5474c.388-.07714.7901-.0375 1.1556.1138.3654.1514.6778.4078.8976.7367.2197.3289.337.7155.337 1.1111 0 .5304-.2107 1.0391-.5858 1.4142-.375.3751-.8837.5858-1.4142.5858z" fill="#939598"/></svg>