<svg fill="none" height="24" viewBox="0 0 24 24" width="24" xmlns="http://www.w3.org/2000/svg" xmlns:xlink="http://www.w3.org/1999/xlink"><linearGradient id="a" gradientUnits="userSpaceOnUse" x1="-2.16088" x2="-.953822" y1="19.9827" y2="25.7036"><stop offset="0" stop-color="#fff500"/><stop offset="1" stop-color="#faae1b"/></linearGradient><linearGradient id="b" gradientUnits="userSpaceOnUse" x1="-2.14224" x2="8.77806" y1="9.80037" y2="23.5707"><stop offset="0" stop-color="#3ca6f9"/><stop offset="1" stop-color="#486ef0"/></linearGradient><path d="m21.17 18.06c-.7168-.1235-1.4426-.187-2.17-.19-2.4816-.002-4.9115.7096-7 2.05-2.08846-1.3404-4.51834-2.052-6.99998-2.05-.72735.003-1.45319.0665-2.17.19-.13017.0207-.25497.0668-.36723.1359s-.20977.1596-.2869.2665-.13238.2279-.16256.3562-.03471.2613-.01331.3914c.05082.2597.20249.4886.42179.6367s.48835.2032.74821.1533c1.43302-.2481 2.90121-.2069 4.31807.1211s2.75371.9363 3.93191 1.7889c.1694.1206.3721.1854.58.1854s.4107-.0648.58-.1854c1.1782-.8526 2.5151-1.4609 3.932-1.7889 1.4168-.328 2.885-.3692 4.318-.1211.2599.0499.5289-.0052.7482-.1533s.371-.377.4218-.6367c.0214-.1301.0169-.2631-.0133-.3914s-.0854-.2493-.1625-.3562c-.0772-.1069-.1747-.1974-.2869-.2665-.1123-.0691-.2371-.1152-.3673-.1359z" fill="url(#a)"/><path clip-rule="evenodd" d="m19 1.87c.7274.00298 1.4532.06653 2.17.19.2248.03854.4297.15277.5807.32374s.2389.38841.2493.61626v12c.0022.1469-.0281.2925-.0886.4264s-.1498.2529-.2615.3483c-.1117.0955-.2431.1652-.3848.2041-.1417.039-.2902.0462-.4351.0212-1.4403-.2326-2.9127-.1736-4.3298.1734-1.2503.3061-2.4351.8309-3.5002 1.5489v-14.38272c1.847-.96443 3.9051-1.4713 6-1.46958zm-8 1.47882c-1.85052-.95033-3.90842-1.44315-5.99995-1.42882-.72736.00298-1.4532.06653-2.17.19-.2348.04048-.44742.16346-.59959.34679-.15217.18334-.23388.41498-.23041.65321v12c-.00215.1469.02812.2925.08865.4264.06052.1339.14981.2529.26152.3483.11171.0955.24308.1652.38478.2041.1417.039.29024.0462.43505.0212 1.43301-.2481 2.9012-.2069 4.31806.1211 1.25105.2896 2.43975.7977 3.51189 1.4996z" fill="url(#b)" fill-rule="evenodd"/></svg>