<svg width="24" height="24" viewBox="0 0 24 24" fill="none" xmlns="http://www.w3.org/2000/svg">
<path fill-rule="evenodd" clip-rule="evenodd" d="M4 8C2.34315 8 1 9.34315 1 11V19C1 20.6569 2.34315 22 4 22H20C21.6569 22 23 20.6569 23 19V11C23 9.34315 21.6569 8 20 8H15.8567C15.8102 8.05814 15.7603 8.11394 15.7071 8.16711L15.7009 8.17334L13.4016 10.4324C13.2169 10.6092 13 10.7488 12.7629 10.8439C12.5218 10.947 12.2623 11.0002 12 11.0002C11.7377 11.0002 11.4782 10.947 11.2372 10.8439C11 10.7488 10.7832 10.6092 10.5985 10.4324L10.5892 10.4233L8.29288 8.16713C8.23971 8.11396 8.18979 8.05815 8.14325 8H4ZM19 15C19 14.8022 18.9414 14.6089 18.8315 14.4444C18.7216 14.28 18.5654 14.1518 18.3827 14.0761C18.2 14.0004 17.9989 13.9806 17.8049 14.0192C17.6109 14.0578 17.4327 14.153 17.2929 14.2929C17.153 14.4327 17.0578 14.6109 17.0192 14.8049C16.9806 14.9989 17.0004 15.2 17.0761 15.3827C17.1518 15.5654 17.28 15.7216 17.4444 15.8315C17.6089 15.9414 17.8022 16 18 16C18.2652 16 18.5196 15.8946 18.7071 15.7071C18.8946 15.5196 19 15.2652 19 15ZM5 15C5 15.1978 5.05865 15.3911 5.16853 15.5556C5.27841 15.72 5.43459 15.8482 5.61732 15.9239C5.80004 15.9996 6.00111 16.0194 6.19509 15.9808C6.38907 15.9422 6.56725 15.847 6.70711 15.7071C6.84696 15.5673 6.9422 15.3891 6.98079 15.1951C7.01937 15.0011 6.99957 14.8 6.92388 14.6173C6.84819 14.4346 6.72002 14.2784 6.55557 14.1685C6.39112 14.0586 6.19778 14 6 14C5.73478 14 5.48043 14.1054 5.29289 14.2929C5.10536 14.4804 5 14.7348 5 15ZM12 12C10.3431 12 9 13.3431 9 15C9 16.6569 10.3431 18 12 18C13.6569 18 15 16.6569 15 15C15 13.3431 13.6569 12 12 12Z" fill="url(#paint0_linear)"/>
<path d="M11.29 9.71C11.3851 9.80104 11.4973 9.87241 11.62 9.92C11.7397 9.97291 11.8691 10.0002 12 10.0002C12.1309 10.0002 12.2603 9.97291 12.38 9.92C12.5028 9.87241 12.6149 9.80104 12.71 9.71L15 7.46C15.1936 7.26639 15.3024 7.0038 15.3024 6.73C15.3024 6.4562 15.1936 6.19361 15 6C14.8064 5.80639 14.5438 5.69762 14.27 5.69762C13.9962 5.69762 13.7336 5.80639 13.54 6L13 6.59V3C13 2.73478 12.8947 2.48043 12.7071 2.29289C12.5196 2.10536 12.2652 2 12 2C11.7348 2 11.4804 2.10536 11.2929 2.29289C11.1054 2.48043 11 2.73478 11 3V6.59L10.46 6C10.2664 5.80639 10.0038 5.69762 9.73001 5.69762C9.4562 5.69762 9.19362 5.80639 9.00001 6C8.8064 6.19361 8.69763 6.4562 8.69763 6.73C8.69763 7.0038 8.8064 7.26639 9.00001 7.46L11.29 9.71Z" fill="url(#paint1_linear)"/>
<path d="M10 15C10 13.8954 10.8954 13 12 13C13.1046 13 14 13.8954 14 15C14 16.1046 13.1046 17 12 17C10.8954 17 10 16.1046 10 15Z" fill="url(#paint2_linear)"/>
<defs>
<linearGradient id="paint0_linear" x1="-3.55635" y1="15" x2="5.41143" y2="29.0922" gradientUnits="userSpaceOnUse">
<stop stop-color="#3CA6F9"/>
<stop offset="1" stop-color="#486EF0"/>
</linearGradient>
<linearGradient id="paint1_linear" x1="7.32974" y1="6.00012" x2="12.8844" y2="10.5859" gradientUnits="userSpaceOnUse">
<stop stop-color="#FFF500"/>
<stop offset="1" stop-color="#FAAE1B"/>
</linearGradient>
<linearGradient id="paint2_linear" x1="9.17157" y1="15" x2="12" y2="17.8284" gradientUnits="userSpaceOnUse">
<stop stop-color="#FFF500"/>
<stop offset="1" stop-color="#FAAE1B"/>
</linearGradient>
</defs>
</svg>
