<svg fill="none" height="24" viewBox="0 0 24 24" width="24" xmlns="http://www.w3.org/2000/svg" xmlns:xlink="http://www.w3.org/1999/xlink"><linearGradient id="a" gradientUnits="userSpaceOnUse" x1="-2.14163" x2="11.9965" y1="12.0029" y2="26.1458"><stop offset="0" stop-color="#3ca6f9"/><stop offset="1" stop-color="#486ef0"/></linearGradient><linearGradient id="b" gradientUnits="userSpaceOnUse" x1="2.31204" x2="2.85279" y1="12" y2="14.721"><stop offset="0" stop-color="#fff500"/><stop offset="1" stop-color="#faae1b"/></linearGradient><path d="m20.34 9.32-14-7c-.55251-.27499-1.17638-.37289-1.78656-.28035s-1.17698.37102-1.62311.79747c-.44612.42644-.74987.9801-.86983 1.58549s-.0503 1.23304.1995 1.79739l2.4 5.37c.05446.1298.08251.2692.08251.41s-.02805.2802-.08251.41l-2.4 5.37c-.2033.4567-.28924.957-.25002 1.4554.03922.4983.20237.979.47461 1.3983.27223.4193.64494.7639 1.08424 1.0025.43929.2386.93126.3637 1.43117.3638.46823-.0047.92949-.114 1.35-.32l14-7c.4966-.2498.914-.6327 1.2057-1.1059s.4461-1.0182.4461-1.5741-.1544-1.1009-.4461-1.5741-.7091-.85608-1.2057-1.1059z" fill="url(#a)"/><path clip-rule="evenodd" d="m4.3963 13h2.17369 6.89001.0014c.2647-.0004.5185-.1057.7057-.2929.1875-.1875.2929-.4419.2929-.7071s-.1054-.5196-.2929-.7071-.4419-.2929-.7071-.2929h-6.89001-2.17369l.26369.59c.05446.1298.0825.2692.0825.41s-.02804.2802-.0825.41z" fill="url(#b)" fill-rule="evenodd"/></svg>