<svg width="24" height="24" viewBox="0 0 24 24" fill="none" xmlns="http://www.w3.org/2000/svg">
<path fill-rule="evenodd" clip-rule="evenodd" d="M6 5C6 3.34315 7.34315 2 9 2C10.6569 2 12 3.34315 12 5C12 3.34315 13.3431 2 15 2C16.6569 2 18 3.34315 18 5C18 6.65685 16.6569 8 15 8H9C7.34315 8 6 6.65685 6 5ZM10 5V6H9C8.44772 6 8 5.55228 8 5C8 4.44772 8.44772 4 9 4C9.55228 4 10 4.44772 10 5ZM14 6V5C14 4.44772 14.4477 4 15 4C15.5523 4 16 4.44772 16 5C16 5.55228 15.5523 6 15 6H14Z" fill="#939598"/>
<path d="M3 9C2.44772 9 2 9.44772 2 10C2 10.5523 2.44772 11 3 11H21C21.5523 11 22 10.5523 22 10C22 9.44772 21.5523 9 21 9H3Z" fill="#939598"/>
<path d="M6 13C6 12.4477 5.55228 12 5 12C4.44772 12 4 12.4477 4 13V18.0009C4 19.6584 5.34376 21 7 21H10C10.5523 21 11 20.5523 11 20C11 19.4477 10.5523 19 10 19H7C6.44711 19 6 18.5526 6 18.0009V13Z" fill="#939598"/>
<path d="M19 12C18.4477 12 18 12.4477 18 13V18.0009C18 18.5526 17.5529 19 17 19H14C13.4477 19 13 19.4477 13 20C13 20.5523 13.4477 21 14 21H17C18.6562 21 20 19.6584 20 18.0009V13C20 12.4477 19.5523 12 19 12Z" fill="#939598"/>
<path d="M12 12C11.4477 12 11 12.4477 11 13V17C11 17.5523 11.4477 18 12 18C12.5523 18 13 17.5523 13 17V13C13 12.4477 12.5523 12 12 12Z" fill="#939598"/>
</svg>
