<?xml version="1.0" encoding="UTF-8"?>
<!DOCTYPE svg PUBLIC "-//W3C//DTD SVG 1.1//EN" "http://www.w3.org/Graphics/SVG/1.1/DTD/svg11.dtd">
<!-- Creator: CorelDRAW X7 -->
<svg xmlns="http://www.w3.org/2000/svg" xml:space="preserve" width="8.26772in" height="11.6929in" version="1.1" style="shape-rendering:geometricPrecision; text-rendering:geometricPrecision; image-rendering:optimizeQuality; fill-rule:evenodd; clip-rule:evenodd"
viewBox="0 0 8268 11693"
 xmlns:xlink="http://www.w3.org/1999/xlink">
 <defs>
  <style type="text/css">
   <![CDATA[
    .str0 {stroke:#939598;stroke-width:7.87402}
    .fil0 {fill:#939598}
   ]]>
  </style>
 </defs>
 <g id="Layer_x0020_1">
  <metadata id="CorelCorpID_0Corel-Layer"/>
  <g id="_2729995500032">
   <path class="fil0 str0" d="M4628 5947l-122 0 0 -152 122 0 0 152zm-13 -162l-69 0 69 -15 0 15zm8 -25c-1,-1 -3,-1 -4,-1l-119 27 0 0 0 0c0,0 0,0 -1,0 0,0 0,0 0,0 0,0 0,0 0,0 0,0 0,0 -1,0 0,1 0,1 0,1 0,0 0,0 0,0 0,0 0,0 -1,1 0,0 0,0 0,0 0,0 0,0 0,0 0,0 0,1 0,1 0,0 0,0 0,0 0,0 0,0 0,1 0,0 0,0 -1,0 0,0 0,0 0,0l0 162c0,3 3,5 5,5l132 0c3,0 5,-2 5,-5l0 -162c0,-2 -2,-5 -5,-5l-8 0 0 -21c0,-1 -1,-3 -2,-4z"/>
   <path class="fil0 str0" d="M4567 5844c14,0 24,11 24,25 0,13 -10,24 -24,24 -13,0 -24,-11 -24,-24 0,-14 11,-25 24,-25zm0 59c19,0 34,-15 34,-34 0,-19 -15,-35 -34,-35 -19,0 -34,16 -34,35 0,19 15,34 34,34z"/>
  </g>
 </g>
</svg>
